<?xml version="1.0" encoding="UTF-8"?>
<svg id="buyer-nodus-logo" xmlns="http://www.w3.org/2000/svg" viewBox="80 290 850 190">
  <text transform="translate(267.53 419.69)" fill="#f3313f" font-family="PlusJakartaSans-Regular, 'Plus Jakarta Sans', Arial, sans-serif" font-size="91.34"><tspan x="0" y="0">BUYER NODUS</tspan></text>
  <polygon points="171.48 406.42 183.1 415.28 163.35 454.37 145.56 457.88 171.48 406.42" fill="#f3313f"/>
  <path d="M141.1,352.46c.35-.27.68-.57.97-.9l5.08,17.84c-8.01,1.01-17.95-3.83-25.03-12.97-7.99-10.33-9.76-22.8-4.88-30.2l14.83,12.32c-.41.2-.8.45-1.18.74-3.46,2.68-3.99,7.81-1.17,11.45s7.91,4.41,11.37,1.73Z" fill="#f3313f"/>
  <polygon points="166.62 357.2 155.97 347.2 179.62 310.34 197.68 308.66 166.62 357.2" fill="#f3313f"/>
  <path d="M202.62,358.13c.28.35.58.68.91.96l-17.78,5.29c-1.1-8,3.62-17.99,12.68-25.18,10.23-8.12,22.69-10.03,30.14-5.23l-12.14,14.98c-.21-.41-.46-.8-.76-1.17-2.72-3.43-7.85-3.9-11.46-1.04s-4.32,7.96-1.6,11.39Z" fill="#f3313f"/>
  <path d="M196.24,413.39c-.32.32-.6.66-.85,1.02l-7.32-17.05c7.81-2.02,18.29,1.51,26.48,9.67,9.25,9.22,12.59,21.37,8.69,29.33l-16.28-10.32c.38-.26.74-.55,1.08-.89,3.09-3.1,2.96-8.25-.3-11.5s-8.41-3.37-11.5-.26Z" fill="#f3313f"/>
  <path d="M138.84,402.21c-.1-.44-.23-.86-.4-1.26l18.31,3c-2.5,7.68-11.1,14.61-22.39,17.12-12.75,2.84-24.79-.88-29.41-8.44l17.46-8.18c0,.46.07.92.17,1.39.95,4.28,5.37,6.93,9.86,5.93s7.36-5.28,6.41-9.55Z" fill="#f3313f"/>
  <polygon points="193.19 381.2 199.5 368.02 241.79 379.41 248.85 396.12 193.19 381.2" fill="#f3313f"/>
  <polygon points="144.23 387.84 134.05 398.32 97.59 374.06 96.22 355.97 144.23 387.84" fill="#f3313f"/>
</svg>
